<mxfile host="app.diagrams.net" agent="Mozilla/5.0 (Windows NT 10.0; Win64; x64) AppleWebKit/537.36 (KHTML, like Gecko) Chrome/139.0.0.0 Safari/537.36 Edg/139.0.0.0" scale="1" border="5" version="28.1.2">
  <diagram id="C5RBs43oDa-KdzZeNtuy" name="Page-1">
    <mxGraphModel dx="1042" dy="670" grid="1" gridSize="10" guides="1" tooltips="1" connect="1" arrows="1" fold="1" page="1" pageScale="1" pageWidth="827" pageHeight="1169" math="0" shadow="0">
      <root>
        <mxCell id="WIyWlLk6GJQsqaUBKTNV-0" />
        <mxCell id="WIyWlLk6GJQsqaUBKTNV-1" parent="WIyWlLk6GJQsqaUBKTNV-0" />
        <mxCell id="iW6S4lpNqwtuTaU4zcRa-28" value="" style="rounded=0;whiteSpace=wrap;html=1;fillColor=#fff2cc;strokeColor=#d6b656;" parent="WIyWlLk6GJQsqaUBKTNV-1" vertex="1">
          <mxGeometry x="660" y="480" width="120" height="340" as="geometry" />
        </mxCell>
        <mxCell id="iW6S4lpNqwtuTaU4zcRa-2" value="" style="rounded=0;whiteSpace=wrap;html=1;fillColor=#d5e8d4;strokeColor=#82b366;" parent="WIyWlLk6GJQsqaUBKTNV-1" vertex="1">
          <mxGeometry x="40" y="480" width="120" height="340" as="geometry" />
        </mxCell>
        <mxCell id="iW6S4lpNqwtuTaU4zcRa-18" value="" style="edgeStyle=orthogonalEdgeStyle;rounded=0;orthogonalLoop=1;jettySize=auto;html=1;entryX=0;entryY=0.5;entryDx=0;entryDy=0;" parent="WIyWlLk6GJQsqaUBKTNV-1" source="iW6S4lpNqwtuTaU4zcRa-0" target="iW6S4lpNqwtuTaU4zcRa-4" edge="1">
          <mxGeometry relative="1" as="geometry">
            <mxPoint x="200" y="535" as="targetPoint" />
          </mxGeometry>
        </mxCell>
        <mxCell id="iW6S4lpNqwtuTaU4zcRa-0" value="Polder selector" style="rounded=1;whiteSpace=wrap;html=1;" parent="WIyWlLk6GJQsqaUBKTNV-1" vertex="1">
          <mxGeometry x="51" y="505" width="99" height="60" as="geometry" />
        </mxCell>
        <mxCell id="iW6S4lpNqwtuTaU4zcRa-1" value="" style="sketch=0;outlineConnect=0;fontColor=#232F3E;gradientColor=none;fillColor=#232F3D;strokeColor=none;dashed=0;verticalLabelPosition=bottom;verticalAlign=top;align=center;html=1;fontSize=12;fontStyle=0;aspect=fixed;pointerEvents=1;shape=mxgraph.aws4.user;" parent="WIyWlLk6GJQsqaUBKTNV-1" vertex="1">
          <mxGeometry x="80.5" y="600" width="39" height="39" as="geometry" />
        </mxCell>
        <mxCell id="617KlzupW5lWk4Vnr1bo-13" value="" style="edgeStyle=orthogonalEdgeStyle;rounded=0;orthogonalLoop=1;jettySize=auto;html=1;entryX=0.5;entryY=0;entryDx=0;entryDy=0;" parent="WIyWlLk6GJQsqaUBKTNV-1" source="iW6S4lpNqwtuTaU4zcRa-4" target="iW6S4lpNqwtuTaU4zcRa-7" edge="1">
          <mxGeometry relative="1" as="geometry" />
        </mxCell>
        <mxCell id="iW6S4lpNqwtuTaU4zcRa-4" value="Exporter" style="rounded=1;whiteSpace=wrap;html=1;" parent="WIyWlLk6GJQsqaUBKTNV-1" vertex="1">
          <mxGeometry x="400" y="515" width="120" height="40" as="geometry" />
        </mxCell>
        <mxCell id="iW6S4lpNqwtuTaU4zcRa-30" value="" style="edgeStyle=orthogonalEdgeStyle;rounded=0;orthogonalLoop=1;jettySize=auto;html=1;" parent="WIyWlLk6GJQsqaUBKTNV-1" source="iW6S4lpNqwtuTaU4zcRa-5" target="iW6S4lpNqwtuTaU4zcRa-4" edge="1">
          <mxGeometry relative="1" as="geometry" />
        </mxCell>
        <mxCell id="iW6S4lpNqwtuTaU4zcRa-5" value="DAMO" style="rounded=1;whiteSpace=wrap;html=1;" parent="WIyWlLk6GJQsqaUBKTNV-1" vertex="1">
          <mxGeometry x="680" y="495" width="80" height="20" as="geometry" />
        </mxCell>
        <mxCell id="617KlzupW5lWk4Vnr1bo-15" value="" style="edgeStyle=orthogonalEdgeStyle;rounded=0;orthogonalLoop=1;jettySize=auto;html=1;" parent="WIyWlLk6GJQsqaUBKTNV-1" source="iW6S4lpNqwtuTaU4zcRa-7" target="617KlzupW5lWk4Vnr1bo-12" edge="1">
          <mxGeometry relative="1" as="geometry" />
        </mxCell>
        <mxCell id="iW6S4lpNqwtuTaU4zcRa-7" value="ToDAMO converter" style="rounded=1;whiteSpace=wrap;html=1;" parent="WIyWlLk6GJQsqaUBKTNV-1" vertex="1">
          <mxGeometry x="400" y="575" width="120" height="40" as="geometry" />
        </mxCell>
        <mxCell id="iW6S4lpNqwtuTaU4zcRa-26" value="" style="edgeStyle=orthogonalEdgeStyle;rounded=0;orthogonalLoop=1;jettySize=auto;html=1;" parent="WIyWlLk6GJQsqaUBKTNV-1" source="iW6S4lpNqwtuTaU4zcRa-8" target="iW6S4lpNqwtuTaU4zcRa-10" edge="1">
          <mxGeometry relative="1" as="geometry" />
        </mxCell>
        <mxCell id="617KlzupW5lWk4Vnr1bo-17" value="" style="edgeStyle=orthogonalEdgeStyle;rounded=0;orthogonalLoop=1;jettySize=auto;html=1;" parent="WIyWlLk6GJQsqaUBKTNV-1" source="iW6S4lpNqwtuTaU4zcRa-8" target="iW6S4lpNqwtuTaU4zcRa-10" edge="1">
          <mxGeometry relative="1" as="geometry" />
        </mxCell>
        <mxCell id="iW6S4lpNqwtuTaU4zcRa-8" value="HyDAMO &lt;br&gt;validator" style="rounded=1;whiteSpace=wrap;html=1;" parent="WIyWlLk6GJQsqaUBKTNV-1" vertex="1">
          <mxGeometry x="420" y="690" width="80" height="60" as="geometry" />
        </mxCell>
        <mxCell id="617KlzupW5lWk4Vnr1bo-9" style="edgeStyle=orthogonalEdgeStyle;rounded=0;orthogonalLoop=1;jettySize=auto;html=1;entryX=0;entryY=0.5;entryDx=0;entryDy=0;" parent="WIyWlLk6GJQsqaUBKTNV-1" source="iW6S4lpNqwtuTaU4zcRa-9" target="iW6S4lpNqwtuTaU4zcRa-15" edge="1">
          <mxGeometry relative="1" as="geometry" />
        </mxCell>
        <mxCell id="iW6S4lpNqwtuTaU4zcRa-9" value="Aannames" style="rounded=1;whiteSpace=wrap;html=1;" parent="WIyWlLk6GJQsqaUBKTNV-1" vertex="1">
          <mxGeometry x="54.5" y="676.25" width="91" height="35" as="geometry" />
        </mxCell>
        <mxCell id="NEdAi1RvaiAOrS2pSwdN-17" style="edgeStyle=orthogonalEdgeStyle;rounded=0;orthogonalLoop=1;jettySize=auto;html=1;exitX=0;exitY=0.5;exitDx=0;exitDy=0;entryX=0.5;entryY=0;entryDx=0;entryDy=0;" parent="WIyWlLk6GJQsqaUBKTNV-1" source="iW6S4lpNqwtuTaU4zcRa-10" target="NEdAi1RvaiAOrS2pSwdN-14" edge="1">
          <mxGeometry relative="1" as="geometry" />
        </mxCell>
        <mxCell id="94FiONBv5CB5nJo3w_k_-2" style="edgeStyle=orthogonalEdgeStyle;rounded=0;orthogonalLoop=1;jettySize=auto;html=1;entryX=1;entryY=0;entryDx=0;entryDy=0;exitX=1;exitY=0.5;exitDx=0;exitDy=0;" parent="WIyWlLk6GJQsqaUBKTNV-1" source="iW6S4lpNqwtuTaU4zcRa-10" target="iW6S4lpNqwtuTaU4zcRa-13" edge="1">
          <mxGeometry relative="1" as="geometry" />
        </mxCell>
        <mxCell id="iW6S4lpNqwtuTaU4zcRa-10" value="HyDAMO validate-interpretator" style="rounded=1;whiteSpace=wrap;html=1;" parent="WIyWlLk6GJQsqaUBKTNV-1" vertex="1">
          <mxGeometry x="400" y="770" width="120" height="70" as="geometry" />
        </mxCell>
        <mxCell id="NEdAi1RvaiAOrS2pSwdN-27" style="edgeStyle=orthogonalEdgeStyle;rounded=0;orthogonalLoop=1;jettySize=auto;html=1;exitX=0.5;exitY=1;exitDx=0;exitDy=0;entryX=0.5;entryY=0;entryDx=0;entryDy=0;" parent="WIyWlLk6GJQsqaUBKTNV-1" source="iW6S4lpNqwtuTaU4zcRa-13" target="iW6S4lpNqwtuTaU4zcRa-49" edge="1">
          <mxGeometry relative="1" as="geometry" />
        </mxCell>
        <mxCell id="iW6S4lpNqwtuTaU4zcRa-13" value="All rules OK?" style="rhombus;whiteSpace=wrap;html=1;" parent="WIyWlLk6GJQsqaUBKTNV-1" vertex="1">
          <mxGeometry x="400" y="950" width="120" height="80" as="geometry" />
        </mxCell>
        <mxCell id="iW6S4lpNqwtuTaU4zcRa-32" style="edgeStyle=orthogonalEdgeStyle;rounded=0;orthogonalLoop=1;jettySize=auto;html=1;entryX=1;entryY=0.5;entryDx=0;entryDy=0;" parent="WIyWlLk6GJQsqaUBKTNV-1" source="iW6S4lpNqwtuTaU4zcRa-14" target="iW6S4lpNqwtuTaU4zcRa-8" edge="1">
          <mxGeometry relative="1" as="geometry" />
        </mxCell>
        <mxCell id="iW6S4lpNqwtuTaU4zcRa-14" value="AHN" style="rounded=1;whiteSpace=wrap;html=1;" parent="WIyWlLk6GJQsqaUBKTNV-1" vertex="1">
          <mxGeometry x="680" y="711.25" width="80" height="17.5" as="geometry" />
        </mxCell>
        <mxCell id="617KlzupW5lWk4Vnr1bo-8" style="edgeStyle=orthogonalEdgeStyle;rounded=0;orthogonalLoop=1;jettySize=auto;html=1;entryX=0;entryY=0.5;entryDx=0;entryDy=0;" parent="WIyWlLk6GJQsqaUBKTNV-1" source="iW6S4lpNqwtuTaU4zcRa-15" target="iW6S4lpNqwtuTaU4zcRa-8" edge="1">
          <mxGeometry relative="1" as="geometry" />
        </mxCell>
        <mxCell id="iW6S4lpNqwtuTaU4zcRa-15" value="HyDAMO fixer" style="rounded=1;whiteSpace=wrap;html=1;" parent="WIyWlLk6GJQsqaUBKTNV-1" vertex="1">
          <mxGeometry x="200" y="695" width="120" height="50" as="geometry" />
        </mxCell>
        <mxCell id="NEdAi1RvaiAOrS2pSwdN-22" style="edgeStyle=orthogonalEdgeStyle;rounded=0;orthogonalLoop=1;jettySize=auto;html=1;exitX=0.5;exitY=1;exitDx=0;exitDy=0;entryX=0;entryY=0.5;entryDx=0;entryDy=0;" parent="WIyWlLk6GJQsqaUBKTNV-1" source="iW6S4lpNqwtuTaU4zcRa-16" target="NEdAi1RvaiAOrS2pSwdN-14" edge="1">
          <mxGeometry relative="1" as="geometry" />
        </mxCell>
        <mxCell id="617KlzupW5lWk4Vnr1bo-10" style="edgeStyle=orthogonalEdgeStyle;rounded=0;orthogonalLoop=1;jettySize=auto;html=1;entryX=0;entryY=0.5;entryDx=0;entryDy=0;" parent="WIyWlLk6GJQsqaUBKTNV-1" source="iW6S4lpNqwtuTaU4zcRa-16" target="iW6S4lpNqwtuTaU4zcRa-15" edge="1">
          <mxGeometry relative="1" as="geometry" />
        </mxCell>
        <mxCell id="iW6S4lpNqwtuTaU4zcRa-16" value="Expert &lt;br&gt;judgment" style="rounded=1;whiteSpace=wrap;html=1;" parent="WIyWlLk6GJQsqaUBKTNV-1" vertex="1">
          <mxGeometry x="54.5" y="728.75" width="91" height="40" as="geometry" />
        </mxCell>
        <mxCell id="iW6S4lpNqwtuTaU4zcRa-29" value="" style="shape=cylinder3;whiteSpace=wrap;html=1;boundedLbl=1;backgroundOutline=1;size=15;" parent="WIyWlLk6GJQsqaUBKTNV-1" vertex="1">
          <mxGeometry x="700" y="600" width="40" height="55" as="geometry" />
        </mxCell>
        <mxCell id="iW6S4lpNqwtuTaU4zcRa-35" value="False" style="text;html=1;align=center;verticalAlign=middle;whiteSpace=wrap;rounded=0;" parent="WIyWlLk6GJQsqaUBKTNV-1" vertex="1">
          <mxGeometry x="300" y="990" width="60" height="30" as="geometry" />
        </mxCell>
        <mxCell id="94FiONBv5CB5nJo3w_k_-5" style="edgeStyle=orthogonalEdgeStyle;rounded=0;orthogonalLoop=1;jettySize=auto;html=1;entryX=0.5;entryY=0;entryDx=0;entryDy=0;" parent="WIyWlLk6GJQsqaUBKTNV-1" source="iW6S4lpNqwtuTaU4zcRa-43" target="iW6S4lpNqwtuTaU4zcRa-45" edge="1">
          <mxGeometry relative="1" as="geometry" />
        </mxCell>
        <mxCell id="iW6S4lpNqwtuTaU4zcRa-43" value="Rasters" style="rounded=1;whiteSpace=wrap;html=1;" parent="WIyWlLk6GJQsqaUBKTNV-1" vertex="1">
          <mxGeometry x="665" y="745" width="55" height="50" as="geometry" />
        </mxCell>
        <mxCell id="94FiONBv5CB5nJo3w_k_-4" style="edgeStyle=orthogonalEdgeStyle;rounded=0;orthogonalLoop=1;jettySize=auto;html=1;entryX=0.75;entryY=0;entryDx=0;entryDy=0;" parent="WIyWlLk6GJQsqaUBKTNV-1" source="iW6S4lpNqwtuTaU4zcRa-44" target="iW6S4lpNqwtuTaU4zcRa-46" edge="1">
          <mxGeometry relative="1" as="geometry">
            <Array as="points">
              <mxPoint x="753" y="1010" />
              <mxPoint x="710" y="1010" />
            </Array>
          </mxGeometry>
        </mxCell>
        <mxCell id="iW6S4lpNqwtuTaU4zcRa-44" value="BGT" style="rounded=1;whiteSpace=wrap;html=1;" parent="WIyWlLk6GJQsqaUBKTNV-1" vertex="1">
          <mxGeometry x="730" y="745" width="45" height="50" as="geometry" />
        </mxCell>
        <mxCell id="NEdAi1RvaiAOrS2pSwdN-24" style="edgeStyle=orthogonalEdgeStyle;rounded=0;orthogonalLoop=1;jettySize=auto;html=1;exitX=0.5;exitY=1;exitDx=0;exitDy=0;entryX=0.25;entryY=0;entryDx=0;entryDy=0;" parent="WIyWlLk6GJQsqaUBKTNV-1" source="iW6S4lpNqwtuTaU4zcRa-45" target="iW6S4lpNqwtuTaU4zcRa-46" edge="1">
          <mxGeometry relative="1" as="geometry" />
        </mxCell>
        <mxCell id="iW6S4lpNqwtuTaU4zcRa-45" value="Raster clipper" style="rounded=1;whiteSpace=wrap;html=1;" parent="WIyWlLk6GJQsqaUBKTNV-1" vertex="1">
          <mxGeometry x="590" y="880" width="120" height="60" as="geometry" />
        </mxCell>
        <mxCell id="NEdAi1RvaiAOrS2pSwdN-26" style="edgeStyle=orthogonalEdgeStyle;rounded=0;orthogonalLoop=1;jettySize=auto;html=1;exitX=0;exitY=0.5;exitDx=0;exitDy=0;entryX=1;entryY=0.5;entryDx=0;entryDy=0;" parent="WIyWlLk6GJQsqaUBKTNV-1" source="iW6S4lpNqwtuTaU4zcRa-46" target="iW6S4lpNqwtuTaU4zcRa-49" edge="1">
          <mxGeometry relative="1" as="geometry" />
        </mxCell>
        <mxCell id="iW6S4lpNqwtuTaU4zcRa-46" value="Water burner&amp;nbsp;" style="rounded=1;whiteSpace=wrap;html=1;" parent="WIyWlLk6GJQsqaUBKTNV-1" vertex="1">
          <mxGeometry x="620" y="1090" width="120" height="60" as="geometry" />
        </mxCell>
        <mxCell id="iW6S4lpNqwtuTaU4zcRa-49" value="3Di importer" style="rounded=1;whiteSpace=wrap;html=1;" parent="WIyWlLk6GJQsqaUBKTNV-1" vertex="1">
          <mxGeometry x="400" y="1090" width="120" height="60" as="geometry" />
        </mxCell>
        <mxCell id="iW6S4lpNqwtuTaU4zcRa-60" value="True" style="text;html=1;align=center;verticalAlign=middle;resizable=0;points=[];autosize=1;strokeColor=none;fillColor=none;" parent="WIyWlLk6GJQsqaUBKTNV-1" vertex="1">
          <mxGeometry x="454" y="1030" width="50" height="30" as="geometry" />
        </mxCell>
        <mxCell id="NEdAi1RvaiAOrS2pSwdN-18" style="edgeStyle=orthogonalEdgeStyle;rounded=0;orthogonalLoop=1;jettySize=auto;html=1;exitX=0;exitY=0.5;exitDx=0;exitDy=0;entryX=0.5;entryY=1;entryDx=0;entryDy=0;" parent="WIyWlLk6GJQsqaUBKTNV-1" source="iW6S4lpNqwtuTaU4zcRa-13" target="iW6S4lpNqwtuTaU4zcRa-15" edge="1">
          <mxGeometry relative="1" as="geometry">
            <mxPoint x="260" y="850" as="targetPoint" />
          </mxGeometry>
        </mxCell>
        <mxCell id="NEdAi1RvaiAOrS2pSwdN-13" value="critical rules" style="text;html=1;align=center;verticalAlign=middle;whiteSpace=wrap;rounded=0;" parent="WIyWlLk6GJQsqaUBKTNV-1" vertex="1">
          <mxGeometry x="540" y="810" width="85" height="30" as="geometry" />
        </mxCell>
        <mxCell id="94FiONBv5CB5nJo3w_k_-0" style="edgeStyle=orthogonalEdgeStyle;rounded=0;orthogonalLoop=1;jettySize=auto;html=1;entryX=0;entryY=0;entryDx=0;entryDy=0;" parent="WIyWlLk6GJQsqaUBKTNV-1" source="NEdAi1RvaiAOrS2pSwdN-14" target="iW6S4lpNqwtuTaU4zcRa-13" edge="1">
          <mxGeometry relative="1" as="geometry" />
        </mxCell>
        <mxCell id="NEdAi1RvaiAOrS2pSwdN-14" value="Include in validation?" style="rhombus;whiteSpace=wrap;html=1;" parent="WIyWlLk6GJQsqaUBKTNV-1" vertex="1">
          <mxGeometry x="290" y="850" width="164" height="75" as="geometry" />
        </mxCell>
        <mxCell id="NEdAi1RvaiAOrS2pSwdN-19" value="Non-critical rules" style="text;html=1;align=center;verticalAlign=middle;whiteSpace=wrap;rounded=0;" parent="WIyWlLk6GJQsqaUBKTNV-1" vertex="1">
          <mxGeometry x="290" y="810" width="86" height="30" as="geometry" />
        </mxCell>
        <mxCell id="617KlzupW5lWk4Vnr1bo-2" style="edgeStyle=orthogonalEdgeStyle;rounded=0;orthogonalLoop=1;jettySize=auto;html=1;entryX=1;entryY=0.5;entryDx=0;entryDy=0;" parent="WIyWlLk6GJQsqaUBKTNV-1" source="617KlzupW5lWk4Vnr1bo-0" target="iW6S4lpNqwtuTaU4zcRa-4" edge="1">
          <mxGeometry relative="1" as="geometry" />
        </mxCell>
        <mxCell id="617KlzupW5lWk4Vnr1bo-0" value="CSO" style="rounded=1;whiteSpace=wrap;html=1;" parent="WIyWlLk6GJQsqaUBKTNV-1" vertex="1">
          <mxGeometry x="680" y="525" width="80" height="20" as="geometry" />
        </mxCell>
        <mxCell id="617KlzupW5lWk4Vnr1bo-3" style="edgeStyle=orthogonalEdgeStyle;rounded=0;orthogonalLoop=1;jettySize=auto;html=1;entryX=1;entryY=0.5;entryDx=0;entryDy=0;" parent="WIyWlLk6GJQsqaUBKTNV-1" source="617KlzupW5lWk4Vnr1bo-1" target="iW6S4lpNqwtuTaU4zcRa-4" edge="1">
          <mxGeometry relative="1" as="geometry" />
        </mxCell>
        <mxCell id="617KlzupW5lWk4Vnr1bo-1" value="HDB" style="rounded=1;whiteSpace=wrap;html=1;" parent="WIyWlLk6GJQsqaUBKTNV-1" vertex="1">
          <mxGeometry x="680" y="555" width="80" height="20" as="geometry" />
        </mxCell>
        <mxCell id="617KlzupW5lWk4Vnr1bo-4" style="edgeStyle=orthogonalEdgeStyle;rounded=0;orthogonalLoop=1;jettySize=auto;html=1;exitX=0.5;exitY=1;exitDx=0;exitDy=0;" parent="WIyWlLk6GJQsqaUBKTNV-1" source="iW6S4lpNqwtuTaU4zcRa-14" target="iW6S4lpNqwtuTaU4zcRa-14" edge="1">
          <mxGeometry relative="1" as="geometry" />
        </mxCell>
        <mxCell id="617KlzupW5lWk4Vnr1bo-16" value="" style="edgeStyle=orthogonalEdgeStyle;rounded=0;orthogonalLoop=1;jettySize=auto;html=1;" parent="WIyWlLk6GJQsqaUBKTNV-1" source="617KlzupW5lWk4Vnr1bo-12" edge="1">
          <mxGeometry relative="1" as="geometry">
            <mxPoint x="460" y="690" as="targetPoint" />
          </mxGeometry>
        </mxCell>
        <mxCell id="617KlzupW5lWk4Vnr1bo-12" value="DAMOToHyDAMO converter" style="rounded=1;whiteSpace=wrap;html=1;" parent="WIyWlLk6GJQsqaUBKTNV-1" vertex="1">
          <mxGeometry x="400" y="630" width="120" height="40" as="geometry" />
        </mxCell>
      </root>
    </mxGraphModel>
  </diagram>
</mxfile>
